<svg width="28" height="28" viewBox="0 0 28 28" fill="none" xmlns="http://www.w3.org/2000/svg">
<path d="M14.9898 3.21019C14.7273 2.94773 14.3712 2.80029 14 2.80029C13.6288 2.80029 13.2727 2.94773 13.0102 3.21019L3.2102 13.0102C2.95517 13.2742 2.81406 13.6279 2.81725 13.995C2.82044 14.362 2.96768 14.7132 3.22725 14.9727C3.48682 15.2323 3.83796 15.3795 4.20503 15.3827C4.57211 15.3859 4.92575 15.2448 5.1898 14.9898L5.6 14.5796V23.8C5.6 24.1713 5.7475 24.5274 6.01005 24.7899C6.2726 25.0525 6.62869 25.2 7 25.2H9.8C10.1713 25.2 10.5274 25.0525 10.7899 24.7899C11.0525 24.5274 11.2 24.1713 11.2 23.8V21C11.2 20.6287 11.3475 20.2726 11.61 20.01C11.8726 19.7475 12.2287 19.6 12.6 19.6H15.4C15.7713 19.6 16.1274 19.7475 16.3899 20.01C16.6525 20.2726 16.8 20.6287 16.8 21V23.8C16.8 24.1713 16.9475 24.5274 17.21 24.7899C17.4726 25.0525 17.8287 25.2 18.2 25.2H21C21.3713 25.2 21.7274 25.0525 21.9899 24.7899C22.2525 24.5274 22.4 24.1713 22.4 23.8V14.5796L22.8102 14.9898C23.0742 15.2448 23.4279 15.3859 23.795 15.3827C24.162 15.3795 24.5132 15.2323 24.7727 14.9727C25.0323 14.7132 25.1796 14.362 25.1827 13.995C25.1859 13.6279 25.0448 13.2742 24.7898 13.0102L14.9898 3.21019Z" fill="#FF6C18"/>
</svg>
